# Blender 4.4.1
# www.blender.org
mtllib COMATS.mtl
o Cube.002
v -2.252551 7.973336 2.252551
v -2.252551 8.454377 2.252551
v -2.252551 7.973336 -2.252551
v -2.252551 8.454377 -2.252551
v 2.252551 7.973336 2.252551
v 2.252551 8.454377 2.252551
v 2.252551 7.973336 -2.252551
v 2.252551 8.454377 -2.252551
v -2.080745 0.026437 2.080745
v -2.080745 8.239409 2.080745
v -2.080745 0.026437 -2.080745
v -2.080745 8.239409 -2.080745
v 2.080745 0.026437 2.080745
v 2.080745 8.239409 2.080745
v 2.080745 0.026437 -2.080745
v 2.080745 8.239409 -2.080745
v -2.080745 4.132923 2.080745
v -2.080745 4.132923 -2.080745
v 2.080745 4.132923 -2.080745
v 2.080745 4.132923 2.080745
v -2.080745 0.026437 1.600973
v -2.080745 8.239409 1.600973
v -1.560198 0.026437 1.600973
v 2.080745 8.239409 1.600973
v 2.080745 4.132923 1.600973
v -2.080745 4.132923 1.600973
v -2.080745 8.239409 -1.563649
v -1.560198 0.026437 -1.563649
v -2.080745 4.132923 -1.563649
v -2.080745 0.026437 -1.563649
v 2.080745 8.239409 -1.563649
v 2.080745 4.132923 -1.563649
v -2.080745 3.529389 -2.080745
v 2.080745 3.529389 -2.080745
v 2.080745 3.529389 2.080745
v -2.080745 3.529389 2.080745
v -2.080745 3.529389 1.600973
v -1.560198 3.529389 1.600973
v -1.560198 3.529389 -1.563649
v -2.080745 3.529389 -1.563649
v -2.252551 -0.240521 2.252551
v -2.252551 0.240520 2.252551
v -2.252551 -0.240521 -2.252551
v -2.252551 0.240520 -2.252551
v 2.252551 -0.240521 2.252551
v 2.252551 0.240520 2.252551
v 2.252551 -0.240521 -2.252551
v 2.252551 0.240520 -2.252551
v 1.658464 7.223336 -1.190428
v 1.658464 7.778370 -1.190428
v 1.658464 7.223336 -1.745461
v 1.658464 7.778370 -1.745461
v 2.213498 7.223336 -1.190428
v 2.213498 7.778370 -1.190428
v 2.213498 7.223336 -1.745461
v 2.213498 7.778370 -1.745461
v 1.658464 6.486310 -1.190428
v 1.658464 7.041345 -1.190428
v 1.658464 6.486310 -1.745461
v 1.658464 7.041345 -1.745461
v 2.213498 6.486310 -1.190428
v 2.213498 7.041345 -1.190428
v 2.213498 6.486310 -1.745461
v 2.213498 7.041345 -1.745461
v 1.658464 5.828313 -1.190428
v 1.658464 6.383347 -1.190428
v 1.658464 5.828313 -1.745461
v 1.658464 6.383347 -1.745461
v 2.213498 5.828313 -1.190428
v 2.213498 6.383347 -1.190428
v 2.213498 5.828313 -1.745461
v 2.213498 6.383347 -1.745461
v 1.658464 5.157153 -1.190428
v 1.658464 5.712187 -1.190428
v 1.658464 5.157153 -1.745461
v 1.658464 5.712187 -1.745461
v 2.213498 5.157153 -1.190428
v 2.213498 5.712187 -1.190428
v 2.213498 5.157153 -1.745461
v 2.213498 5.712187 -1.745461
v 1.658464 4.470394 -1.190428
v 1.658464 5.025428 -1.190428
v 1.658464 4.470394 -1.745461
v 1.658464 5.025428 -1.745461
v 2.213498 4.470394 -1.190428
v 2.213498 5.025428 -1.190428
v 2.213498 4.470394 -1.745461
v 2.213498 5.025428 -1.745461
v -0.991281 0.026437 -2.080745
v -0.991281 8.239409 -2.080745
v -0.991281 0.026437 2.080745
v -0.991281 8.239409 2.080745
v -0.991281 4.132923 2.080745
v -0.991281 4.132923 -2.080745
v -0.991281 8.239409 1.600973
v -1.944467 0.026437 1.600973
v -1.944467 0.026437 -1.563649
v -0.991281 8.239409 -1.563649
v -0.991281 3.529389 -2.080745
v -0.991281 3.529389 2.080745
vn -1.0000 -0.0000 -0.0000
vn -0.0000 -0.0000 -1.0000
vn 1.0000 -0.0000 -0.0000
vn -0.0000 -0.0000 1.0000
vn -0.0000 -1.0000 -0.0000
vn -0.0000 1.0000 -0.0000
vn 0.1026 -0.6190 -0.7787
vn 0.1635 -0.9865 -0.0000
vn 0.1072 -0.6469 0.7550
vn 0.1406 -0.0000 0.9901
vn 0.1306 -0.0000 -0.9914
vt 0.903009 0.238793
vt 0.928455 0.000481
vt 0.928455 0.238793
vt 0.929417 0.238782
vt 0.954863 0.000481
vt 0.954863 0.238782
vt 0.907490 0.913480
vt 0.932936 0.675168
vt 0.932936 0.913480
vt 0.938483 0.674194
vt 0.963930 0.435894
vt 0.963930 0.674194
vt 0.663752 0.238793
vt 0.902047 0.000481
vt 0.902047 0.238793
vt 0.478066 0.674206
vt 0.239755 0.435894
vt 0.478066 0.435894
vt 0.193263 0.000481
vt 0.220616 0.217707
vt 0.193263 0.217707
vt 0.279206 0.000481
vt 0.441704 0.217707
vt 0.279206 0.217707
vt 0.442660 0.700547
vt 0.659886 0.675168
vt 0.659886 0.700547
vt 0.605162 0.000481
vt 0.662790 0.217707
vt 0.605162 0.217707
vt 0.414164 0.700547
vt 0.384072 0.675168
vt 0.434490 0.700547
vt 0.025860 0.895303
vt 0.000481 0.837673
vt 0.025860 0.837673
vt 0.662790 0.249633
vt 0.605162 0.249633
vt 0.910877 0.435894
vt 0.911113 0.467820
vt 0.718286 0.467820
vt 0.441704 0.249633
vt 0.279206 0.249633
vt 0.220616 0.249633
vt 0.193263 0.249633
vt 0.000481 0.217707
vt 0.025860 0.249633
vt 0.000481 0.249633
vt 0.663752 0.239755
vt 0.831155 0.432714
vt 0.663752 0.432714
vt 0.193263 0.895303
vt 0.193263 0.837673
vt 0.414164 0.867950
vt 0.434490 0.867950
vt 0.442660 0.867950
vt 0.659886 0.867950
vt 0.000481 0.000481
vt 0.025860 0.217707
vt 0.442660 0.895303
vt 0.659886 0.895303
vt 0.384072 0.895303
vt 0.220616 0.895303
vt 0.220616 0.837673
vt 0.660848 0.707094
vt 0.661123 0.675168
vt 0.853712 0.707094
vt 0.025860 0.000481
vt 0.193263 0.434933
vt 0.025860 0.434933
vt 0.853712 0.892394
vt 0.660848 0.892394
vt 0.832116 0.239755
vt 0.999519 0.425054
vt 0.832116 0.425054
vt 0.000481 0.434933
vt 0.220616 0.434933
vt 0.441704 0.434933
vt 0.279206 0.434933
vt 0.911113 0.653120
vt 0.718286 0.653120
vt 0.662790 0.434933
vt 0.605162 0.434933
vt 0.854674 0.913480
vt 0.880120 0.675168
vt 0.880120 0.913480
vt 0.912075 0.674196
vt 0.937521 0.435894
vt 0.937521 0.674196
vt 0.881082 0.913480
vt 0.906528 0.675168
vt 0.906528 0.913480
vt 0.933898 0.913468
vt 0.959344 0.675168
vt 0.959344 0.913468
vt 0.479028 0.674206
vt 0.717324 0.435894
vt 0.717324 0.674206
vt 0.238793 0.674206
vt 0.000481 0.435894
vt 0.238793 0.435894
vt 0.660848 0.893355
vt 0.690208 0.922716
vt 0.660848 0.922716
vt 0.023380 0.900171
vt 0.052739 0.929532
vt 0.023380 0.929532
vt 0.712654 0.900191
vt 0.742014 0.929552
vt 0.712654 0.929552
vt 0.026546 0.898218
vt 0.055905 0.927579
vt 0.026546 0.927579
vt 0.898666 0.945755
vt 0.928024 0.916395
vt 0.928024 0.945755
vt 0.029841 0.925625
vt 0.000481 0.896265
vt 0.029841 0.896265
vt 0.721492 0.893355
vt 0.750852 0.922716
vt 0.721492 0.922716
vt 0.559560 0.919703
vt 0.588919 0.949063
vt 0.559560 0.949063
vt 0.079939 0.899215
vt 0.109299 0.928575
vt 0.079939 0.928575
vt 0.445539 0.915796
vt 0.474897 0.945157
vt 0.445539 0.945157
vt 0.564868 0.943204
vt 0.594226 0.913843
vt 0.594226 0.943204
vt 0.101179 0.929532
vt 0.071819 0.900171
vt 0.101179 0.900171
vt 0.212735 0.925625
vt 0.242096 0.896265
vt 0.242096 0.925625
vt 0.364342 0.896265
vt 0.393701 0.925625
vt 0.364342 0.925625
vt 0.282120 0.929532
vt 0.311480 0.900171
vt 0.311480 0.929532
vt 0.535477 0.915796
vt 0.564835 0.945157
vt 0.535477 0.945157
vt 0.628391 0.947110
vt 0.657749 0.917749
vt 0.657749 0.947110
vt 0.178376 0.929532
vt 0.149016 0.900171
vt 0.178376 0.900171
vt 0.152091 0.925625
vt 0.181452 0.896265
vt 0.181452 0.925625
vt 0.470835 0.917749
vt 0.500194 0.947110
vt 0.470835 0.947110
vt 0.280070 0.933438
vt 0.309430 0.904078
vt 0.309430 0.933438
vt 0.536500 0.917749
vt 0.565859 0.947110
vt 0.536500 0.947110
vt 0.807892 0.935989
vt 0.837251 0.906629
vt 0.837251 0.935989
vt 0.163776 0.933438
vt 0.134416 0.904078
vt 0.163776 0.904078
vt 0.782136 0.893355
vt 0.811496 0.922716
vt 0.782136 0.922716
vt 0.334021 0.896265
vt 0.363380 0.925625
vt 0.334021 0.925625
vt 0.808552 0.905074
vt 0.837912 0.934435
vt 0.808552 0.934435
vt 0.473906 0.917749
vt 0.503265 0.947110
vt 0.473906 0.947110
vt 0.831237 0.935989
vt 0.860595 0.906629
vt 0.860595 0.935989
vt 0.151130 0.925625
vt 0.121769 0.896265
vt 0.151130 0.896265
vt 0.442666 0.249633
vt 0.442666 0.434933
vt 0.221578 0.249633
vt 0.221578 0.434933
vt 0.193263 0.675168
vt 0.220616 0.675168
vt 0.441698 0.895303
vt 0.441698 0.867950
vt 0.441698 0.700547
vt 0.025860 0.675168
vt 0.221578 0.217707
vt 0.442666 0.217707
vt 0.000481 0.675168
vt 0.441698 0.675168
vt 0.442666 0.000481
vt 0.221578 0.000481
vt 0.903009 0.000481
vt 0.929417 0.000481
vt 0.907490 0.675168
vt 0.938483 0.435894
vt 0.663752 0.000481
vt 0.239755 0.674206
vt 0.220616 0.000481
vt 0.441704 0.000481
vt 0.442660 0.675168
vt 0.662790 0.000481
vt 0.221578 0.675168
vt 0.000481 0.895303
vt 0.911113 0.435894
vt 0.831155 0.239755
vt 0.221578 0.895303
vt 0.660848 0.675168
vt 0.999519 0.239755
vt 0.854674 0.675168
vt 0.912075 0.435894
vt 0.881082 0.675168
vt 0.933898 0.675168
vt 0.479028 0.435894
vt 0.000481 0.674206
vt 0.690208 0.893355
vt 0.052739 0.900171
vt 0.742014 0.900191
vt 0.055905 0.898218
vt 0.898666 0.916395
vt 0.000481 0.925625
vt 0.750852 0.893355
vt 0.588919 0.919703
vt 0.109299 0.899215
vt 0.474897 0.915796
vt 0.564868 0.913843
vt 0.071819 0.929532
vt 0.212735 0.896265
vt 0.393701 0.896265
vt 0.282120 0.900171
vt 0.564835 0.915796
vt 0.628391 0.917749
vt 0.149016 0.929532
vt 0.152091 0.896265
vt 0.500194 0.917749
vt 0.280070 0.904078
vt 0.565859 0.917749
vt 0.807892 0.906629
vt 0.134416 0.933438
vt 0.811496 0.893355
vt 0.363380 0.896265
vt 0.837912 0.905074
vt 0.503265 0.917749
vt 0.831237 0.906629
vt 0.121769 0.925625
s 0
usemtl Material.013
f 2/1/1 3/2/1 1/3/1
f 4/4/2 7/5/2 3/6/2
f 8/7/3 5/8/3 7/9/3
f 6/10/4 1/11/4 5/12/4
f 7/13/5 1/14/5 3/15/5
f 4/16/6 6/17/6 8/18/6
f 27/19/1 18/20/1 29/21/1
f 90/22/2 19/23/2 94/24/2
f 24/25/3 20/26/3 25/27/3
f 92/28/4 17/29/4 93/30/4
f 23/31/5 91/32/5 96/33/5
f 22/34/6 92/35/6 95/36/6
f 93/30/4 36/37/4 100/38/4
f 25/39/7 35/40/7 38/41/7
f 94/24/2 34/42/2 99/43/2
f 29/21/1 33/44/1 40/45/1
f 17/46/1 37/47/1 36/48/1
f 32/49/8 38/50/8 39/51/8
f 27/52/6 95/36/6 98/53/6
f 28/54/5 96/33/5 97/55/5
f 31/56/3 25/27/3 32/57/3
f 10/58/1 26/59/1 17/46/1
f 16/60/3 32/57/3 19/61/3
f 89/62/5 28/54/5 97/55/5
f 12/63/6 98/53/6 90/64/6
f 34/65/9 32/66/9 39/67/9
f 26/59/1 40/45/1 37/47/1
f 22/68/1 29/21/1 26/59/1
f 37/47/1 30/69/1 21/70/1
f 34/65/10 28/71/10 15/72/10
f 39/73/3 23/74/3 28/75/3
f 36/48/1 21/70/1 9/76/1
f 40/45/1 11/77/1 30/69/1
f 99/43/2 15/78/2 89/79/2
f 38/41/11 13/80/11 23/81/11
f 100/38/4 9/82/4 91/83/4
f 42/84/1 43/85/1 41/86/1
f 44/87/2 47/88/2 43/89/2
f 48/90/3 45/91/3 47/92/3
f 46/93/4 41/94/4 45/95/4
f 47/96/5 41/97/5 43/98/5
f 44/99/6 46/100/6 48/101/6
f 50/102/1 51/103/1 49/104/1
f 52/105/2 55/106/2 51/107/2
f 56/108/3 53/109/3 55/110/3
f 54/111/4 49/112/4 53/113/4
f 55/114/5 49/115/5 51/116/5
f 52/117/6 54/118/6 56/119/6
f 58/120/1 59/121/1 57/122/1
f 60/123/2 63/124/2 59/125/2
f 64/126/3 61/127/3 63/128/3
f 62/129/4 57/130/4 61/131/4
f 63/132/5 57/133/5 59/134/5
f 60/135/6 62/136/6 64/137/6
f 66/138/1 67/139/1 65/140/1
f 68/141/2 71/142/2 67/143/2
f 72/144/3 69/145/3 71/146/3
f 70/147/4 65/148/4 69/149/4
f 71/150/5 65/151/5 67/152/5
f 68/153/6 70/154/6 72/155/6
f 74/156/1 75/157/1 73/158/1
f 76/159/2 79/160/2 75/161/2
f 80/162/3 77/163/3 79/164/3
f 78/165/4 73/166/4 77/167/4
f 79/168/5 73/169/5 75/170/5
f 76/171/6 78/172/6 80/173/6
f 82/174/1 83/175/1 81/176/1
f 84/177/2 87/178/2 83/179/2
f 88/180/3 85/181/3 87/182/3
f 86/183/4 81/184/4 85/185/4
f 87/186/5 81/187/5 83/188/5
f 84/189/6 86/190/6 88/191/6
f 35/192/4 91/83/4 13/193/4
f 33/194/2 89/79/2 11/195/2
f 90/64/6 31/196/6 16/197/6
f 11/198/5 97/55/5 30/199/5
f 97/55/5 21/200/5 30/199/5
f 98/53/6 24/201/6 31/196/6
f 18/202/2 99/43/2 33/194/2
f 20/203/4 100/38/4 35/192/4
f 95/36/6 14/204/6 24/201/6
f 96/33/5 9/205/5 21/200/5
f 14/206/4 93/30/4 20/203/4
f 12/207/2 94/24/2 18/202/2
f 2/1/1 4/208/1 3/2/1
f 4/4/2 8/209/2 7/5/2
f 8/7/3 6/210/3 5/8/3
f 6/10/4 2/211/4 1/11/4
f 7/13/5 5/212/5 1/14/5
f 4/16/6 2/213/6 6/17/6
f 27/19/1 12/214/1 18/20/1
f 90/22/2 16/215/2 19/23/2
f 24/25/3 14/216/3 20/26/3
f 92/28/4 10/217/4 17/29/4
f 23/31/5 13/218/5 91/32/5
f 22/34/6 10/219/6 92/35/6
f 93/30/4 17/29/4 36/37/4
f 25/39/3 20/220/3 35/40/3
f 94/24/2 19/23/2 34/42/2
f 29/21/1 18/20/1 33/44/1
f 17/46/1 26/59/1 37/47/1
f 32/49/8 25/221/8 38/50/8
f 27/52/6 22/34/6 95/36/6
f 28/54/5 23/31/5 96/33/5
f 31/56/3 24/25/3 25/27/3
f 10/58/1 22/68/1 26/59/1
f 16/60/3 31/56/3 32/57/3
f 89/62/5 15/222/5 28/54/5
f 12/63/6 27/52/6 98/53/6
f 34/65/3 19/223/3 32/66/3
f 26/59/1 29/21/1 40/45/1
f 22/68/1 27/19/1 29/21/1
f 37/47/1 40/45/1 30/69/1
f 34/65/10 39/67/10 28/71/10
f 39/73/3 38/224/3 23/74/3
f 36/48/1 37/47/1 21/70/1
f 40/45/1 33/44/1 11/77/1
f 99/43/2 34/42/2 15/78/2
f 38/41/11 35/40/11 13/80/11
f 100/38/4 36/37/4 9/82/4
f 42/84/1 44/225/1 43/85/1
f 44/87/2 48/226/2 47/88/2
f 48/90/3 46/227/3 45/91/3
f 46/93/4 42/228/4 41/94/4
f 47/96/5 45/229/5 41/97/5
f 44/99/6 42/230/6 46/100/6
f 50/102/1 52/231/1 51/103/1
f 52/105/2 56/232/2 55/106/2
f 56/108/3 54/233/3 53/109/3
f 54/111/4 50/234/4 49/112/4
f 55/114/5 53/235/5 49/115/5
f 52/117/6 50/236/6 54/118/6
f 58/120/1 60/237/1 59/121/1
f 60/123/2 64/238/2 63/124/2
f 64/126/3 62/239/3 61/127/3
f 62/129/4 58/240/4 57/130/4
f 63/132/5 61/241/5 57/133/5
f 60/135/6 58/242/6 62/136/6
f 66/138/1 68/243/1 67/139/1
f 68/141/2 72/244/2 71/142/2
f 72/144/3 70/245/3 69/145/3
f 70/147/4 66/246/4 65/148/4
f 71/150/5 69/247/5 65/151/5
f 68/153/6 66/248/6 70/154/6
f 74/156/1 76/249/1 75/157/1
f 76/159/2 80/250/2 79/160/2
f 80/162/3 78/251/3 77/163/3
f 78/165/4 74/252/4 73/166/4
f 79/168/5 77/253/5 73/169/5
f 76/171/6 74/254/6 78/172/6
f 82/174/1 84/255/1 83/175/1
f 84/177/2 88/256/2 87/178/2
f 88/180/3 86/257/3 85/181/3
f 86/183/4 82/258/4 81/184/4
f 87/186/5 85/259/5 81/187/5
f 84/189/6 82/260/6 86/190/6
f 35/192/4 100/38/4 91/83/4
f 33/194/2 99/43/2 89/79/2
f 90/64/6 98/53/6 31/196/6
f 11/198/5 89/62/5 97/55/5
f 97/55/5 96/33/5 21/200/5
f 98/53/6 95/36/6 24/201/6
f 18/202/2 94/24/2 99/43/2
f 20/203/4 93/30/4 100/38/4
f 95/36/6 92/35/6 14/204/6
f 96/33/5 91/32/5 9/205/5
f 14/206/4 92/28/4 93/30/4
f 12/207/2 90/22/2 94/24/2
o Cube.001
v -1.089357 4.126523 1.461869
v -1.089357 4.427011 1.461869
v -1.089357 4.126523 1.161380
v -1.089357 4.427011 1.161380
v -0.788868 4.126523 1.461869
v -0.788868 4.427011 1.461869
v -0.788868 4.126523 1.161380
v -0.788868 4.427011 1.161380
vn -1.0000 -0.0000 -0.0000
vn -0.0000 -0.0000 -1.0000
vn 1.0000 -0.0000 -0.0000
vn -0.0000 -0.0000 1.0000
vn -0.0000 -1.0000 -0.0000
vn -0.0000 1.0000 -0.0000
vt 0.559399 0.262402
vt 0.440600 0.381201
vt 0.440600 0.262402
vt 0.559399 0.381201
vt 0.440600 0.500000
vt 0.559399 0.500000
vt 0.440600 0.618799
vt 0.559399 0.618799
vt 0.440600 0.737598
vt 0.321801 0.618799
vt 0.321801 0.500000
vt 0.678199 0.500000
vt 0.559399 0.737598
vt 0.678199 0.618799
s 0
usemtl Material.011
f 102/261/12 103/262/12 101/263/12
f 104/264/13 107/265/13 103/262/13
f 108/266/14 105/267/14 107/265/14
f 106/268/15 101/269/15 105/267/15
f 107/265/16 101/270/16 103/271/16
f 104/272/17 106/268/17 108/266/17
f 102/261/12 104/264/12 103/262/12
f 104/264/13 108/266/13 107/265/13
f 108/266/14 106/268/14 105/267/14
f 106/268/15 102/273/15 101/269/15
f 107/265/16 105/267/16 101/270/16
f 104/272/17 102/274/17 106/268/17
